<svg xmlns="http://www.w3.org/2000/svg" viewBox="0 0 400 400">
  <g fill-rule="evenodd">
    <path d="M185 30.801c-1.76.153-3.47.39-3.8.527-.33.137-2.49.434-4.8.66-2.31.226-5.37.683-6.8 1.015-1.43.332-3.86.862-5.4 1.179-5.745 1.179-7.27 1.554-10.067 2.475-1.577.518-3.158.943-3.514.943-.356 0-1.046.252-1.533.56-.487.308-1.848.76-3.024 1.004s-2.521.712-2.989 1.04c-.468.328-1.216.597-1.662.597-.446.001-1.366.34-2.044.754-.679.414-1.849.882-2.6 1.042-.752.159-1.907.61-2.567 1.003-.66.393-1.773.835-2.472.983-.7.147-1.478.515-1.728.817-.25.302-1.028.67-1.728.819-.699.148-1.549.513-1.887.81-.338.297-1.238.82-2 1.162-.762.341-1.655.798-1.985 1.015-.33.217-1.05.582-1.6.812-.55.229-1.9.949-3 1.6-1.1.651-2.372 1.346-2.826 1.545-.863.377-3.411 2.004-4.755 3.037-.43.33-.97.6-1.2.6-.231.001-.942.451-1.581 1-.639.55-1.403 1-1.697 1-.294 0-.759.36-1.034.8-.275.44-.698.8-.941.8s-.965.45-1.604 1c-.639.549-1.271.999-1.404 1-.132 0-.71.405-1.284.9a43.49 43.49 0 01-1.958 1.583 89.103 89.103 0 00-2.174 1.7c-.692.559-1.353 1.017-1.469 1.017-.116 0-.729.495-1.361 1.1-.633.605-2.398 2.18-3.923 3.5-3.663 3.172-12.937 12.437-16.195 16.181-1.427 1.639-3.089 3.466-3.694 4.06-.605.594-1.1 1.198-1.1 1.343 0 .234-2.266 3.305-2.815 3.816-.42.391-4.385 5.991-4.385 6.194 0 .113-.315.543-.7.954-.385.412-1.24 1.68-1.9 2.819-.66 1.139-1.515 2.45-1.9 2.913-.385.463-.7 1.063-.7 1.332 0 .27-.281.723-.624 1.008-.343.285-.943 1.162-1.332 1.949a61.99 61.99 0 01-1.642 3.031c-.513.88-1.185 2.14-1.493 2.8-.308.66-.723 1.47-.922 1.8-.199.33-.708 1.342-1.129 2.248-.422.907-.968 1.773-1.213 1.924-.245.151-.445.562-.445.912s-.43 1.554-.956 2.676c-2.006 4.282-2.597 5.675-2.86 6.741-.149.605-.612 1.769-1.028 2.585-.416.816-.756 1.716-.756 2 0 .284-.36 1.189-.8 2.01-.44.82-.8 1.947-.8 2.504 0 .557-.334 1.639-.741 2.406-.408.767-.868 2.114-1.021 2.994-.154.88-.614 2.5-1.022 3.6-.407 1.1-.926 2.9-1.152 4-.225 1.1-.677 3.17-1.004 4.6-.985 4.314-1.481 7.172-2.081 12-.315 2.53-.777 5.32-1.027 6.2-.598 2.102-.932 29.354-.41 33.4.213 1.65.673 5.34 1.022 8.2.349 2.86.89 6.19 1.202 7.4.311 1.21.684 3.232.828 4.493.144 1.262.609 3.282 1.034 4.49.425 1.209.773 2.607.774 3.107.001.501.447 2.17.991 3.71.545 1.54.994 3.206.999 3.701.004.496.368 1.574.808 2.395.44.82.8 1.857.8 2.304 0 .447.336 1.439.747 2.206.41.767.878 2.024 1.039 2.794.161.77.517 1.76.792 2.2.274.44.811 1.743 1.191 2.895.381 1.153.858 2.198 1.062 2.324.203.125.369.643.369 1.151 0 .507.36 1.38.8 1.939.44.56.8 1.149.8 1.31 0 .368 4.544 9.432 5.806 11.581.516.88 1.194 2.14 1.505 2.8.311.66.863 1.447 1.227 1.749.364.302.665.752.669 1 .007.419 1.862 3.438 2.786 4.534.224.266.407.585.407.71 0 1.109 12.16 16.628 17.35 22.141 4.775 5.074 11.997 11.926 15.85 15.037.99.799 2.556 2.092 3.48 2.873a54.305 54.305 0 003.4 2.614c.946.656 2.44 1.725 3.32 2.374 1.832 1.352 4.848 3.365 8.6 5.739 3.875 2.452 4.083 2.576 5.6 3.331.77.384 1.623.908 1.896 1.166.273.257 1.128.676 1.9.931s1.404.6 1.404.768c0 .168.723.543 1.606.835.883.291 1.805.77 2.049 1.064.243.294.628.534.854.534.386 0 1.098.315 6.697 2.958 1.213.573 2.507 1.042 2.876 1.042.369 0 .774.166.899.369.126.204 1.147.675 2.269 1.048 1.122.372 2.515.925 3.095 1.228.58.302 1.422.551 1.87.553.449.001 1.499.35 2.334.776.835.426 2.412.966 3.505 1.2 1.092.234 2.472.673 3.066.974.594.302 1.927.671 2.962.822 1.036.151 2.396.53 3.022.842.627.313 2.414.749 3.97.97 1.557.221 3.285.574 3.841.786.555.211 2.512.578 4.347.815 1.836.238 4.508.687 5.938.998 2.342.51 6.812.887 19.6 1.655 5.188.312 25.742-.862 28.8-1.645 1.21-.309 3.73-.752 5.6-.984 1.87-.231 4.12-.68 5-.996.88-.317 2.287-.584 3.126-.593.839-.01 2.369-.37 3.4-.8 1.031-.43 2.905-.963 4.164-1.185 1.26-.221 2.79-.655 3.4-.964.611-.309 1.83-.692 2.71-.851.88-.159 1.78-.435 2-.613.22-.178 1.39-.612 2.6-.964 1.21-.353 2.74-.896 3.4-1.208.66-.312 2.73-1.143 4.6-1.847 1.87-.705 3.755-1.53 4.189-1.833.434-.304 1.064-.555 1.4-.558.592-.005 4.89-2.049 5.774-2.746.24-.19 1.112-.562 1.937-.828.825-.266 1.5-.622 1.5-.791 0-.17.675-.608 1.5-.975.825-.366 2.4-1.204 3.5-1.863 1.1-.658 2.45-1.42 3-1.692.55-.272 1.18-.634 1.4-.804 1.245-.964 3.355-2.34 4.4-2.868 1.499-.758 10.339-7.075 11-7.861.11-.131 1.1-.855 2.2-1.61 1.1-.755 2.461-1.819 3.024-2.365.564-.546 2.57-2.387 4.458-4.092 5.138-4.638 8.667-8.171 12.961-12.974 2.126-2.379 4.204-4.686 4.618-5.126.709-.756 3.175-3.947 4.939-6.392.44-.61 1.168-1.581 1.617-2.158.45-.578 1.119-1.5 1.487-2.05.368-.55 1.231-1.794 1.917-2.765.687-.971 1.417-2.141 1.624-2.6.325-.722 1.664-2.76 2.651-4.035.17-.22.532-.85.804-1.4.272-.55 1.031-1.9 1.687-3 .655-1.1 1.463-2.573 1.796-3.273.333-.7.774-1.377.982-1.505.207-.128.593-.906.856-1.728.264-.822.705-1.764.98-2.094.276-.33.739-1.275 1.03-2.1.291-.825.659-1.5.818-1.5.158 0 .413-.57.565-1.266.153-.696.708-2.073 1.232-3.059.525-.987.954-2.033.954-2.325 0-.292.359-1.12.799-1.84.439-.721.799-1.675.8-2.121 0-.446.269-1.193.596-1.66.327-.467.851-1.834 1.165-3.038.313-1.204.749-2.527.969-2.94 1.293-2.436 5.418-18.986 6.467-25.951.232-1.54.583-3.79.781-5 1.683-10.287 1.562-39.697-.192-46.877-.307-1.253-.747-3.805-.979-5.672-.232-1.867-.688-4.15-1.014-5.073-.325-.923-.6-2.331-.61-3.128-.009-.798-.297-2.17-.64-3.05-.342-.88-.805-2.5-1.028-3.6-.224-1.1-.649-2.63-.945-3.4-.296-.77-.734-2.21-.973-3.2-.239-.99-.671-2.34-.961-3-.291-.66-.839-2.1-1.219-3.2-1.478-4.282-2.157-6.046-2.772-7.2-.351-.66-.64-1.449-.642-1.753-.001-.304-.343-1.114-.759-1.8-.416-.686-.88-1.832-1.032-2.547-.151-.715-.426-1.3-.612-1.3-.185 0-.554-.675-.819-1.5-.264-.825-.699-1.77-.965-2.1-.266-.33-.723-1.23-1.016-2-.293-.77-.707-1.627-.919-1.904-.494-.647-1.723-2.756-2.502-4.296-.335-.66-1.134-2.01-1.778-3-.644-.99-1.419-2.34-1.723-3-.304-.66-.851-1.447-1.215-1.749-.364-.302-.662-.769-.662-1.038s-.36-.815-.8-1.213c-.44-.398-.8-.95-.8-1.225 0-.276-.765-1.463-1.7-2.638a91.917 91.917 0 01-3.079-4.137c-.758-1.1-1.613-2.144-1.9-2.32-.286-.176-.521-.505-.521-.732 0-.688-6.877-8.609-12.413-14.297-5.578-5.732-15.515-14.287-20.987-18.069-1.1-.76-2.104-1.522-2.23-1.693-.127-.171-1.207-.934-2.4-1.695-1.194-.761-2.588-1.691-3.098-2.066a24.132 24.132 0 00-1.646-1.105l-2.272-1.338c-.855-.503-2.274-1.35-3.154-1.883a60.179 60.179 0 00-3.2-1.78c-.88-.447-1.87-.994-2.2-1.217-.33-.223-1.05-.59-1.6-.816-.55-.226-2.347-1.125-3.993-2-1.646-.874-3.199-1.589-3.451-1.589-.252 0-.673-.258-.935-.574-.262-.316-1.049-.696-1.749-.843-.699-.148-1.812-.59-2.472-.983-.66-.393-1.827-.847-2.594-1.009-.767-.163-1.798-.56-2.291-.884-.493-.323-1.486-.742-2.206-.932-2.132-.561-6.452-2.013-7.249-2.438-.899-.478-5.257-1.709-11.16-3.153-.935-.228-2.69-.672-3.9-.985-1.21-.314-2.853-.577-3.651-.585-.798-.008-2.083-.278-2.854-.6-.772-.322-3.809-.868-6.749-1.213-2.94-.344-6.606-.789-8.146-.989-3.218-.417-26.023-.425-30.8-.011m114.916 78.262c.157.255.985.595 1.84.755.854.16 1.889.627 2.299 1.037.41.41.919.745 1.131.745.212 0 .601.405.863.9.263.495.795 1.125 1.183 1.4.387.276.826 1.053.974 1.727.148.675.497 1.666.775 2.202.405.779.473 17.144.342 81.673l-.164 80.698-1.007 2.6c-1.48 3.819-3.381 5.68-7.9 7.733l-2.349 1.067H101.967l-2.515-1.176c-2.577-1.205-4.505-2.999-6.259-5.824L92.2 283l-.284-80.6c-.31-88.111-.317-87.6 1.333-87.6.193 0 .351-.251.351-.559 0-.499.586-1.075 3.934-3.863.514-.428 1.348-.778 1.854-.778s1.436-.27 2.066-.6c1.509-.791 197.973-.728 198.462.063" fill="#83dbfb"/>
    <path d="M100.537 110.145c-2.623.578-5.777 3.17-7.146 5.873l-.991 1.955v17.171c0 15.288.069 17.197.633 17.413.835.321 212.326.307 214.267-.014l1.5-.248v-15.752c0-22.106-1.102-25.149-9.6-26.518-3.819-.615-195.856-.499-198.663.12m129.362 14.174c3.438 1.141 4.701 3.026 4.701 7.015v3.162l-2.2 1.948c-2.129 1.884-2.28 1.947-4.695 1.952-8.236.014-10.342-11.383-2.596-14.046 2.453-.843 2.345-.842 4.79-.031m26.056.092c2.108.54 4.249 2.641 4.897 4.806.545 1.817.13 5.138-.68 5.449-.315.121-.572.462-.572.758 0 .295-.797 1.086-1.772 1.757-7.099 4.884-15.37-5.016-9.281-11.11 1.034-1.036 4.437-2.481 5.253-2.232.22.067 1.19.324 2.155.572m26.024-.18c6.049 1.796 7.223 9.085 2.105 13.069-1.782 1.387-5.743 1.586-7.33.368-.525-.402-1.224-.831-1.554-.952-.775-.285-2.8-4.306-2.8-5.559 0-2.668 2.657-6.025 5.44-6.875 1.078-.329 1.972-.617 1.987-.64.015-.023.984.242 2.152.589" fill="#2c3c4c"/>
    <path d="M0 200v200h400V0H0v200M217.2 30.844c1.21.212 4.45.649 7.2.97 2.75.32 5.797.854 6.771 1.184.974.331 2.324.608 3 .616 1.354.016 4.994.847 6.755 1.542.619.244 1.631.444 2.249.444.618 0 1.911.342 2.874.76.963.418 2.557.891 3.542 1.051.985.159 2.155.517 2.6.795.445.277 1.508.627 2.363.777.855.151 2.202.621 2.994 1.045.792.425 1.72.772 2.061.772.342 0 1.307.35 2.145.777.838.427 2.092.899 2.785 1.05.694.15 1.739.61 2.323 1.023.584.412 1.286.75 1.56.75.43 0 3.737 1.441 5.578 2.431.33.177 2.76 1.43 5.4 2.783 6.166 3.162 7.953 4.128 8.2 4.434.11.136 1.19.839 2.4 1.562 2.635 1.575 5.615 3.545 7.8 5.158.88.649 2.41 1.732 3.4 2.405.99.673 2.586 1.9 3.547 2.726.961.825 1.943 1.574 2.184 1.662.24.089 1.115.789 1.944 1.557.829.767 1.904 1.672 2.388 2.011 4.067 2.849 15.904 15.053 21.795 22.471 1.834 2.31 3.571 4.47 3.858 4.8.287.33.874 1.122 1.303 1.76a339.837 339.837 0 003.181 4.64c2.122 3.056 5.166 7.967 6.94 11.2.544.99 1.397 2.52 1.898 3.4.917 1.614 4.609 9.038 5.968 12 .72 1.572 1.458 3.432 2.775 7 .366.99 1.015 2.532 1.442 3.426.427.895.777 2.07.777 2.611 0 .542.252 1.345.561 1.786.308.44.765 1.605 1.015 2.589.25.983.697 2.418.993 3.188.296.77.721 2.3.945 3.4.223 1.1.686 2.72 1.028 3.6.343.88.631 2.252.64 3.05.01.797.279 2.189.598 3.094.319.904.775 3.131 1.013 4.95.238 1.818.689 4.386 1.003 5.706.507 2.132 1.94 21.399 1.86 25-.173 7.723-1.522 24.192-2.065 25.212-.179.337-.454 1.957-.61 3.6-.157 1.644-.62 4.068-1.028 5.388-.409 1.32-.745 2.901-.748 3.513-.003.612-.35 2.142-.772 3.4-.422 1.258-.95 3.187-1.173 4.287-.443 2.184-1.283 4.889-2.486 8.008-.426 1.104-.776 2.274-.778 2.6-.002.325-.446 1.492-.987 2.592-.541 1.1-.995 2.27-1.009 2.6-.014.33-.468 1.5-1.009 2.6-.541 1.1-.985 2.242-.987 2.537-.002.295-.364.994-.804 1.554-.44.559-.8 1.335-.8 1.724 0 .881-6.967 14.541-8.153 15.985-.271.33-.709 1.05-.973 1.6-.75 1.56-2.13 3.778-2.494 4.008-.182.115-.522.655-.757 1.2-.234.546-1.055 1.802-1.825 2.792-.769.99-1.519 2.07-1.666 2.4-.148.33-.686 1.14-1.197 1.8-1.764 2.281-2.167 2.812-4.392 5.8-1.229 1.65-2.529 3.289-2.888 3.642-.36.354-1.375 1.506-2.255 2.561-2.049 2.457-13.854 14.279-16.433 16.458a123.463 123.463 0 00-3.202 2.8c-.68.626-1.744 1.499-2.365 1.939-1.553 1.1-3.876 2.873-4.6 3.51-.33.291-1.122.88-1.76 1.309a197.77 197.77 0 00-2.019 1.381 79.969 79.969 0 01-2.34 1.54c-.815.516-1.481 1.082-1.481 1.256 0 .175-.405.419-.9.544-.495.125-1.26.505-1.7.845-1.681 1.299-4.418 3.001-4.838 3.008-.241.004-.749.351-1.129.771-.381.42-1.174.884-1.762 1.031-.589.147-1.341.507-1.671.801-.756.671-11.554 6.204-12.109 6.204-.36 0-2.7 1.035-5.891 2.605-.55.27-1.72.709-2.6.974-.88.265-2.14.726-2.8 1.025-1.354.614-4.058 1.521-7.6 2.552-1.32.384-2.76.888-3.2 1.12-.44.232-1.662.547-2.717.7-1.054.153-2.674.622-3.6 1.042-.925.421-2.403.776-3.283.791-.88.014-2.32.286-3.2.604-.88.318-3.22.779-5.2 1.023-1.98.245-4.436.681-5.457.97-6.993 1.978-40.562 1.969-49.543-.013-1.43-.316-4.22-.856-6.2-1.2-7.627-1.325-8.453-1.493-10.2-2.066-.99-.324-2.88-.817-4.2-1.094-1.32-.276-2.976-.802-3.68-1.168-.704-.366-1.694-.669-2.2-.674-.506-.005-1.687-.357-2.626-.783-.938-.425-2.374-.899-3.191-1.053-.818-.153-2.03-.61-2.695-1.015-.664-.405-1.458-.738-1.764-.739-.549-.001-2.318-.747-6.25-2.637-1.104-.53-2.175-.964-2.38-.964-.305 0-7.527-3.52-9.814-4.783a34.64 34.64 0 00-1.6-.801c-1.156-.543-2.885-1.517-4.6-2.592l-2.6-1.628c-.77-.482-2.992-1.938-4.938-3.236-1.946-1.298-3.836-2.54-4.2-2.76-4.806-2.904-14.819-11.419-22.834-19.418-4.649-4.64-6.155-6.282-9.122-9.95-.608-.752-1.511-1.779-2.006-2.282-.495-.502-.902-1.057-.905-1.232-.003-.175-.732-1.101-1.622-2.059-.889-.957-2.552-3.117-3.695-4.8-1.143-1.682-2.233-3.172-2.422-3.31-.346-.253-1.005-1.31-3.631-5.829-.793-1.363-1.663-2.713-1.933-3-.271-.286-.812-1.15-1.204-1.92-.392-.77-1.513-2.84-2.493-4.6-.979-1.76-1.981-3.65-2.226-4.2-.949-2.132-1.178-2.62-1.503-3.2-.184-.33-.789-1.59-1.344-2.8-.555-1.21-1.302-2.83-1.66-3.6a40.348 40.348 0 01-1.262-3.165c-.336-.971-.768-1.961-.959-2.2-.192-.239-.483-1.065-.648-1.835-.165-.77-.636-2.027-1.046-2.794-.411-.767-.747-1.764-.747-2.215 0-.452-.352-1.513-.783-2.358-.431-.845-.907-2.362-1.059-3.372-.151-1.009-.605-2.561-1.008-3.448s-.736-2.112-.741-2.723c-.005-.61-.356-2.098-.781-3.307-.425-1.208-.887-3.228-1.028-4.49-.14-1.261-.513-3.193-.828-4.293-.314-1.1-.845-4.25-1.179-7-.334-2.75-.791-6.205-1.014-7.678-.684-4.504-.301-32.154.507-36.722.37-2.09.856-5.06 1.079-6.6.626-4.318 1.277-7.787 1.912-10.2.319-1.21.831-3.502 1.138-5.094.307-1.592.809-3.392 1.116-4 .307-.608.677-1.884.823-2.834.145-.951.53-2.133.854-2.628.324-.494.751-1.697.949-2.672.349-1.716 1.35-4.418 2.895-7.816.412-.904.749-1.894.749-2.2.001-.306.361-1.145.8-1.866.44-.72.799-1.512.799-1.76 0-.397 1.114-2.927 2.611-5.93 1.765-3.54 5.132-9.878 5.462-10.282.217-.265.703-1.075 1.08-1.8 1.128-2.168 1.798-3.254 2.747-4.447.495-.623.9-1.292.9-1.488 0-.195.543-1.126 1.207-2.069.664-.943 1.869-2.704 2.677-3.914s1.709-2.47 2.002-2.8c.633-.713 2.396-3.021 3.514-4.6.44-.621 1.25-1.629 1.8-2.241.55-.611 1.81-2.048 2.8-3.194.99-1.145 2.97-3.336 4.4-4.869 1.43-1.532 2.655-2.93 2.722-3.107.067-.176 2.767-2.716 6-5.645 3.233-2.928 6.508-5.897 7.278-6.598.77-.701 2.75-2.27 4.4-3.488 1.65-1.217 3.263-2.448 3.585-2.735.322-.288.882-.703 1.243-.923.362-.22 1.432-.94 2.379-1.6 4.064-2.834 3.841-2.692 10.793-6.881 3.627-2.186 10.675-6.016 12.8-6.956.55-.244 1.918-.875 3.04-1.403s2.243-.96 2.49-.96c.248 0 1.04-.359 1.76-.799.721-.439 1.58-.804 1.91-.812.33-.008 1.5-.457 2.6-.998 1.1-.541 2.273-.985 2.606-.987.333-.002 1.233-.338 2-.745.767-.408 2.111-.874 2.987-1.036.876-.162 1.956-.496 2.4-.743.77-.428 3.504-1.268 7.407-2.275.99-.256 3.102-.812 4.693-1.235 1.591-.424 4.135-.947 5.653-1.162 1.517-.216 3.193-.557 3.724-.759.531-.201 3.027-.584 5.548-.849 2.52-.265 4.743-.58 4.939-.7 1.377-.84 32.262-1.224 36.643-.456M92.496 218.7l.104 65.1 1.33 1.903c1.583 2.264 3.109 3.487 6.073 4.867l2.197 1.022 97.612.004 97.611.004 2.593-1.1c4.105-1.742 6.89-4.022 7.448-6.1.148-.55.595-1.72.994-2.6.689-1.523.725-4.659.733-64.9l.009-63.3H92.393l.103 65.1m174.1-27.728c.707.296 2.033.664 2.947.818 2.475.418 2.857 1.232 2.857 6.085 0 4.58-.665 5.822-2.205 4.12-.387-.429-1.355-.897-2.15-1.041-.795-.143-1.985-.547-2.645-.898-2.257-1.197-9.567-.846-11.889.571-5.152 3.146-3.088 7.899 5.089 11.719 1.54.72 3.07 1.465 3.4 1.656.33.19 1.942 1.022 3.583 1.848 12.205 6.142 12.208 19.866.007 26.029l-3.79 1.914-8.4-.008c-8.165-.008-8.492-.039-11.7-1.139l-3.3-1.132v-5.333c0-6.192.026-6.23 3.103-4.66 10.622 5.418 21.571 3.759 19.916-3.018-.403-1.65-2.157-4.001-3.175-4.256-.493-.124-1.317-.59-1.831-1.036-.515-.446-1.258-.811-1.653-.811s-1.564-.45-2.598-1c-1.035-.55-2.079-1.001-2.322-1.002-.596-.002-3.661-1.588-5.726-2.963-4.991-3.323-7.167-11.237-4.739-17.235.963-2.378 4.571-6.6 5.641-6.6.267 0 .691-.247.941-.549 2.098-2.527 16.172-3.945 20.639-2.079M160.483 192.8c.42 1.21 1.009 2.947 1.309 3.859.3.912.829 2.209 1.177 2.88.347.672.631 1.552.631 1.957 0 .404.358 1.438.796 2.297.438.859.909 2.202 1.045 2.985.137.782.492 1.81.789 2.285.297.474.756 1.734 1.021 2.8.264 1.065.703 2.297.975 2.737.273.44.627 1.43.788 2.2.161.77.629 2.027 1.039 2.794.411.767.747 1.826.747 2.353 0 .527.345 1.52.766 2.206.422.686.9 1.963 1.062 2.839.163.875.627 2.135 1.032 2.8.405.664.738 1.533.739 1.93 0 .397.341 1.477.756 2.4.415.923.882 2.308 1.039 3.078.156.77.508 1.76.782 2.2 2.24 3.603 1.478 4.2-5.359 4.2h-5.897l-1.024-2.5c-.563-1.375-1.118-3.04-1.233-3.7-.115-.66-.684-2.235-1.265-3.5l-1.057-2.3-8.67.006c-4.769.003-8.879.138-9.133.3-.527.336-1.97 4.133-2.697 7.094-1.148 4.681-1.137 4.675-8.636 4.515-5.766-.123-6.614-.497-5.091-2.245.321-.368.805-1.616 1.075-2.771.27-1.156.641-2.194.825-2.308.183-.113.613-1.168.955-2.343.342-1.176.892-2.658 1.224-3.293.331-.635.603-1.465.605-1.844.001-.379.341-1.459.755-2.4 1.531-3.479 2.539-6.148 2.837-7.511.168-.77.598-1.94.955-2.6.358-.66.651-1.421.653-1.692.002-.528 1.604-4.817 2.844-7.619.417-.941.758-2.116.758-2.611 0-.495.254-1.263.565-1.706.31-.444.862-1.831 1.226-3.082s.809-2.367.99-2.478c.181-.112.454-.88.607-1.708.279-1.503 1.596-4.038 2.391-4.603.231-.165 3.373-.255 6.98-.2l6.56.099.764 2.2m49.117-1.992c.99.199 2.79.563 4 .81 1.21.247 2.866.794 3.679 1.215.814.422 1.716.767 2.006.767 2.295 0 10.315 8.089 10.315 10.404 0 .293.287.85.637 1.237.392.433.877 2.397 1.261 5.11 1.48 10.442-2.342 22.794-8.207 26.528-3.838 2.443-8.959 5.117-9.817 5.126-.261.003-1.615.363-3.01.8-3.079.965-24.269 1.23-25.184.315-.694-.694-.694-51.546 0-52.24.581-.581 21.471-.643 24.32-.072m-11.954 10.306c-.772 1.442-.609 30.875.177 31.997.757 1.081 3.104 1.184 6.777.297 1.32-.319 2.866-.586 3.436-.594 10.674-.147 15.401-20.542 6.605-28.499-3.839-3.473-15.658-5.699-16.995-3.201m-46.282 1.986c-.15.825-.584 2.13-.966 2.9-.381.77-.819 2.262-.972 3.317-.154 1.054-.624 2.674-1.044 3.6-.421.925-.769 2.133-.776 2.683-.006.55-.274 1.504-.595 2.12-.984 1.887-1.376 3.755-.888 4.243.725.725 11.259.582 11.876-.162.524-.631-.031-3.876-.828-4.836-.204-.245-.486-1.328-.627-2.405-.142-1.078-.568-2.59-.947-3.36s-.812-2.12-.963-3c-.313-1.835-2.267-6.6-2.705-6.6-.161 0-.415.675-.565 1.5" fill="#fbfbfb"/>
    <path d="M145.505 191.7c-.544.715-1.269 2.2-1.612 3.3-.342 1.1-1.1 3.26-1.684 4.8-.584 1.54-1.32 3.61-1.635 4.6-.315.99-.753 2.16-.973 2.6-.404.807-1.536 4.029-2.621 7.463-.324 1.025-.856 2.375-1.182 3-.326.625-.594 1.472-.596 1.883-.001.41-.346 1.4-.766 2.2-.421.799-1.032 2.264-1.358 3.254-.326.99-1.078 3.06-1.67 4.6-.593 1.54-1.314 3.61-1.603 4.6-.29.99-.813 2.34-1.163 3-.351.66-.638 1.477-.64 1.815-.001.339-.365 1.327-.808 2.197-1.283 2.517-1.136 2.588 5.364 2.588h5.784l.838-1.065c.46-.586.926-1.531 1.034-2.1.109-.569.478-1.845.82-2.835.343-.99.816-2.52 1.053-3.4.726-2.701.332-2.6 10.179-2.6h8.968l1.183 2.5c.65 1.375 1.183 2.86 1.185 3.3.002.759 1.446 4.629 2.127 5.7.23.361 1.86.5 5.846.5 6.512 0 6.808-.146 5.807-2.857a91.44 91.44 0 01-1.267-3.743c-.343-1.1-.869-2.355-1.169-2.789-.3-.434-.546-1.181-.546-1.66 0-.479-.448-1.834-.996-3.011s-1.002-2.59-1.009-3.14c-.007-.55-.365-1.45-.795-2-.43-.55-.787-1.45-.794-2-.006-.55-.278-1.512-.604-2.137-.326-.625-.862-2.044-1.191-3.152-.329-1.107-.755-2.216-.947-2.462-.192-.247-.566-1.349-.832-2.449-.266-1.1-.715-2.36-.998-2.8-.282-.44-.642-1.495-.8-2.343-.158-.849-.612-2.289-1.01-3.2-.774-1.773-1.366-3.383-2.302-6.257-.322-.99-.817-2.25-1.099-2.8-.283-.55-.643-1.539-.801-2.198-.518-2.168-.633-2.202-7.424-2.202h-6.303l-.99 1.3m39.819-.8c-.563.869-.625 51.496-.064 52.172.931 1.122 22.955.505 26.74-.75 3.541-1.173 6.753-2.617 7.513-3.378.299-.299.747-.544.994-.544.696 0 3.58-2.056 4.693-3.346l1.7-1.968c.385-.444.7-1.027.7-1.293 0-.267.354-.935.786-1.484.432-.55.971-1.826 1.198-2.835.226-1.01.666-2.43.977-3.155 1.78-4.143 1.478-15.61-.508-19.315-.469-.876-.853-1.721-.853-1.878 0-2.134-8.084-9.526-10.417-9.526-.286 0-.804-.25-1.152-.555-.631-.554-4.683-1.578-8.831-2.231-3.666-.577-23.093-.506-23.476.086m64.076.621c-7.114 2.767-11 7.711-11 13.995 0 4.27 2.595 9.709 5.592 11.723 1.773 1.191 5.59 3.161 6.124 3.161.409 0 3.166 1.245 6.954 3.14 6.363 3.183 5.973 10.272-.611 11.095-2.475.309-8.405-.094-9.037-.614-.232-.191-1.412-.607-2.622-.924-1.21-.317-2.9-1.053-3.756-1.636-2.591-1.767-2.732-1.473-2.56 5.339l.116 4.6 3.4 1.166c5.254 1.803 17.557 1.802 21.8 0 6.977-2.965 10.027-6.663 10.485-12.716.383-5.064-.305-6.997-3.685-10.349-2.096-2.08-2.685-2.446-8.2-5.097-1.87-.899-3.67-1.802-4-2.007-.33-.205-1.32-.708-2.2-1.119-6.071-2.831-7.273-8.494-2.321-10.932 2.511-1.237 9.886-1.383 12.001-.239.704.381 1.625.693 2.046.693.421 0 1.246.377 1.832.838 2.048 1.612 2.917-.383 2.566-5.892-.194-3.058-.596-3.517-3.442-3.941-1.035-.154-2.134-.488-2.442-.742-1.319-1.089-13.934-.749-17.04.458m-41.579 9.268c1.467.199 2.99.714 3.863 1.306 2.963 2.011 4.759 3.629 5.384 4.848.354.691.776 1.347.937 1.457.47.321 1.595 5.791 1.595 7.754 0 6.331-3.562 13.394-7.785 15.439-4.233 2.049-13.413 3.105-14.201 1.633-.784-1.465-.546-31.837.256-32.639.7-.7 3.766-.638 9.951.202m-54.914 1.99c.188.729.593 1.707.898 2.173.305.466.679 1.658.831 2.648.152.99.588 2.43.968 3.2s.814 2.247.965 3.282c.151 1.036.571 2.476.933 3.2.362.725.667 2.128.678 3.118l.02 1.8-5.842.11c-6.884.13-7.166.003-6.135-2.767.357-.958.832-2.463 1.055-3.343.223-.88.741-2.5 1.151-3.6.41-1.1.87-2.81 1.021-3.8.151-.99.51-2.162.796-2.605.287-.443.726-1.757.975-2.921.505-2.351 1.155-2.542 1.686-.495" fill="#fc8268"/>
    <path d="M185.905 30.683c.497.096 1.217.092 1.6-.008.382-.1-.025-.179-.905-.174-.88.004-1.193.086-.695.182M79.781 80.1L78.2 81.8l1.7-1.581c.935-.87 1.7-1.635 1.7-1.7 0-.303-.348 0-1.819 1.581m21.673 28.9c-.63.33-1.56.6-2.066.6-.506 0-1.34.35-1.854.778-3.348 2.788-3.934 3.364-3.934 3.863 0 .308-.158.559-.351.559-1.453 0-1.454.017-1.303 84 .081 44.77.216 81.475.3 81.567.085.091.154-28.393.154-63.3v-63.466l108.5-.1 108.5-.101.104-17.15c.087-14.22.007-17.346-.467-18.296-.314-.63-.691-1.688-.836-2.349-.145-.662-.582-1.429-.969-1.705-.388-.275-.92-.905-1.183-1.4-.262-.495-.651-.9-.863-.9-.212 0-.721-.335-1.131-.745-.41-.41-1.445-.877-2.299-1.037-.855-.16-1.683-.5-1.84-.755-.489-.791-196.953-.854-198.462-.063m197.746 1.025c8.498 1.369 9.6 4.412 9.6 26.518v15.752l-1.5.248c-1.941.321-213.432.335-214.267.014-.564-.216-.633-2.125-.633-17.413v-17.171l.991-1.955c1.369-2.703 4.523-5.295 7.146-5.873 2.807-.619 194.844-.735 198.663-.12m-74.091 14.325c-7.746 2.663-5.64 14.06 2.596 14.046 2.415-.005 2.566-.068 4.695-1.952l2.2-1.948v-3.162c0-5.674-4.236-8.791-9.491-6.984m26.399.008c-7.79 2.642-6.005 14.042 2.199 14.042 2.469 0 5.893-1.729 5.893-2.976 0-.296.257-.637.572-.758.81-.311 1.225-3.632.68-5.449-.648-2.165-2.789-4.266-4.897-4.806a95.584 95.584 0 01-2.155-.572c-.22-.068-1.251.166-2.292.519m26.332-.076c-2.783.85-5.44 4.207-5.44 6.875 0 1.253 2.025 5.274 2.8 5.559.33.121 1.029.55 1.554.952 4.772 3.662 12.783-3.374 10.132-8.899-1.296-2.702-6.275-6.319-7.059-5.127-.015.023-.909.311-1.987.64m-21.54 66.011c.935.084 2.465.084 3.4 0s.17-.153-1.7-.153c-1.87 0-2.635.069-1.7.153m114.209 6.907c0 .99.078 1.395.173.9a5.661 5.661 0 000-1.8c-.095-.495-.173-.09-.173.9m-171.204 3.087c.609.092 1.509.09 2-.005.492-.095-.005-.171-1.105-.168-1.1.003-1.503.081-.895.173m171.219 3.113c.002 1.32.077 1.812.166 1.093.089-.719.087-1.799-.004-2.4s-.164-.013-.162 1.307" fill="#a6c9d9"/>
  </g>
</svg>