<svg xmlns="http://www.w3.org/2000/svg" version="1.1" width="2048.00" height="2048.00" viewBox="0 0 2048.0 2048.0"> <rect x="0" y="0" width="2048.00" height="2048.00" fill="#32b9be"/> <g id="document" transform="matrix(1,0,0,1,1024.0,1024.0)"> <g> <g> <path d="M-107.854,-377.507 L-194.433,-377.507 C-242.28,-377.507 -281.012,-416.24 -281.012,-464.087 C-281.012,-511.933 -242.28,-550.666 -194.433,-550.666 C-146.587,-550.666 -107.854,-511.933 -107.854,-464.087 L-107.854,-377.507 Z " fill="#000000" fill-opacity="1.00"/> <path d="M93.6447,-377.507 L180.224,-377.507 C228.07,-377.507 266.803,-416.24 266.803,-464.087 C266.803,-511.933 228.07,-550.666 180.224,-550.666 C132.377,-550.666 93.6447,-511.933 93.6447,-464.087 L93.6447,-377.507 Z " fill="#000000" fill-opacity="1.00"/> <path d="M-107.854,44.9541 L-194.433,44.9541 C-242.28,44.9541 -281.012,83.6869 -281.012,131.533 C-281.012,179.38 -242.28,218.112 -194.433,218.112 C-146.587,218.112 -107.854,179.38 -107.854,131.533 L-107.854,44.9541 Z " fill="#000000" fill-opacity="1.00"/> <path d="M93.6447,44.9541 L180.224,44.9541 C228.07,44.9541 266.803,83.6869 266.803,131.533 C266.803,179.38 228.07,218.112 180.224,218.112 C132.377,218.112 93.6447,179.38 93.6447,131.533 L93.6447,44.9541 Z " fill="#000000" fill-opacity="1.00"/> <path d="M-280.308,-469.265 L266.601,-469.265 L266.601,134.717 L-280.308,134.717 L-280.308,-469.265 Z " fill="#000000" fill-opacity="1.00"/> <path d="M-191.224,-550.666 L176.109,-550.666 L176.109,-183.333 L-191.224,-183.333 L-191.224,-550.666 Z " fill="#000000" fill-opacity="1.00"/> <path d="M-193.336,-149.22 L173.997,-149.22 L173.997,218.112 L-193.336,218.112 L-193.336,-149.22 Z " fill="#000000" fill-opacity="1.00"/> </g> <g> <path d="M-107.854,-44.9541 L-194.433,-44.9541 C-242.28,-44.9541 -281.012,-83.6869 -281.012,-131.533 C-281.012,-179.38 -242.28,-218.112 -194.433,-218.112 C-146.587,-218.112 -107.854,-179.38 -107.854,-131.533 L-107.854,-44.9541 Z " fill="#000000" fill-opacity="1.00"/> <path d="M93.6447,-44.9541 L180.224,-44.9541 C228.07,-44.9541 266.803,-83.6869 266.803,-131.533 C266.803,-179.38 228.07,-218.112 180.224,-218.112 C132.377,-218.112 93.6447,-179.38 93.6447,-131.533 L93.6447,-44.9541 Z " fill="#000000" fill-opacity="1.00"/> <path d="M-107.854,377.507 L-194.433,377.507 C-242.28,377.507 -281.012,416.24 -281.012,464.087 C-281.012,511.933 -242.28,550.666 -194.433,550.666 C-146.587,550.666 -107.854,511.933 -107.854,464.087 L-107.854,377.507 Z " fill="#000000" fill-opacity="1.00"/> <path d="M93.6447,377.507 L180.224,377.507 C228.07,377.507 266.803,416.24 266.803,464.087 C266.803,511.933 228.07,550.666 180.224,550.666 C132.377,550.666 93.6447,511.933 93.6447,464.087 L93.6447,377.507 Z " fill="#000000" fill-opacity="1.00"/> <path d="M-280.308,-136.712 L266.601,-136.712 L266.601,467.27 L-280.308,467.27 L-280.308,-136.712 Z " fill="#000000" fill-opacity="1.00"/> <path d="M-191.224,-218.112 L176.109,-218.112 L176.109,149.22 L-191.224,149.22 L-191.224,-218.112 Z " fill="#000000" fill-opacity="1.00"/> <path d="M-193.336,183.333 L173.997,183.333 L173.997,550.666 L-193.336,550.666 L-193.336,183.333 Z " fill="#000000" fill-opacity="1.00"/> </g> </g> <g> <g> <g> <path d="M-100.056,-324.586 L-179.933,-324.586 C-224.076,-324.586 -259.811,-360.321 -259.811,-404.464 C-259.811,-448.607 -224.076,-484.342 -179.933,-484.342 C-135.79,-484.342 -100.056,-448.607 -100.056,-404.464 L-100.056,-324.586 Z " fill="#e9dcb7" fill-opacity="1.00"/> <path d="M85.8464,-324.586 L165.724,-324.586 C209.867,-324.586 245.602,-360.321 245.602,-404.464 C245.602,-448.607 209.867,-484.342 165.724,-484.342 C121.581,-484.342 85.8464,-448.607 85.8464,-404.464 L85.8464,-324.586 Z " fill="#e9dcb7" fill-opacity="1.00"/> <path d="M-100.056,65.1756 L-179.933,65.1756 C-224.076,65.1756 -259.811,100.91 -259.811,145.053 C-259.811,189.196 -224.076,224.931 -179.933,224.931 C-135.79,224.931 -100.056,189.196 -100.056,145.053 L-100.056,65.1756 Z " fill="#e9dcb7" fill-opacity="1.00"/> <path d="M85.8464,65.1756 L165.724,65.1756 C209.867,65.1756 245.602,100.91 245.602,145.053 C245.602,189.196 209.867,224.931 165.724,224.931 C121.581,224.931 85.8464,189.196 85.8464,145.053 L85.8464,65.1756 Z " fill="#e9dcb7" fill-opacity="1.00"/> <path d="M-259.162,-409.242 L245.415,-409.242 L245.415,147.99 L-259.162,147.99 L-259.162,-409.242 Z " fill="#e9dcb7" fill-opacity="1.00"/> <path d="M-176.972,-484.342 L161.927,-484.342 L161.927,-145.442 L-176.972,-145.442 L-176.972,-484.342 Z " fill="#e9dcb7" fill-opacity="1.00"/> <path d="M-178.921,-113.969 L159.979,-113.969 L159.979,224.931 L-178.921,224.931 L-178.921,-113.969 Z " fill="#e9dcb7" fill-opacity="1.00"/> </g> <g> <path d="M-100.056,-17.7735 L-179.933,-17.7735 C-224.076,-17.7735 -259.811,-53.5083 -259.811,-97.6512 C-259.811,-141.794 -224.076,-177.529 -179.933,-177.529 C-135.79,-177.529 -100.056,-141.794 -100.056,-97.6512 L-100.056,-17.7735 Z " fill="#e9dcb7" fill-opacity="1.00"/> <path d="M85.8464,-17.7735 L165.724,-17.7735 C209.867,-17.7735 245.602,-53.5083 245.602,-97.6512 C245.602,-141.794 209.867,-177.529 165.724,-177.529 C121.581,-177.529 85.8464,-141.794 85.8464,-97.6512 L85.8464,-17.7735 Z " fill="#e9dcb7" fill-opacity="1.00"/> <path d="M-100.056,371.988 L-179.933,371.988 C-224.076,371.988 -259.811,407.723 -259.811,451.866 C-259.811,496.009 -224.076,531.744 -179.933,531.744 C-135.79,531.744 -100.056,496.009 -100.056,451.866 L-100.056,371.988 Z " fill="#e9dcb7" fill-opacity="1.00"/> <path d="M85.8464,371.988 L165.724,371.988 C209.867,371.988 245.602,407.723 245.602,451.866 C245.602,496.009 209.867,531.744 165.724,531.744 C121.581,531.744 85.8464,496.009 85.8464,451.866 L85.8464,371.988 Z " fill="#e9dcb7" fill-opacity="1.00"/> <path d="M-259.162,-102.429 L245.415,-102.429 L245.415,454.803 L-259.162,454.803 L-259.162,-102.429 Z " fill="#e9dcb7" fill-opacity="1.00"/> <path d="M-176.972,-177.529 L161.927,-177.529 L161.927,161.371 L-176.972,161.371 L-176.972,-177.529 Z " fill="#e9dcb7" fill-opacity="1.00"/> <path d="M-178.921,192.844 L159.979,192.844 L159.979,531.744 L-178.921,531.744 L-178.921,192.844 Z " fill="#e9dcb7" fill-opacity="1.00"/> </g> </g> <g> <g> <path d="M-100.056,-371.988 L-179.933,-371.988 C-224.076,-371.988 -259.811,-407.723 -259.811,-451.866 C-259.811,-496.009 -224.076,-531.744 -179.933,-531.744 C-135.79,-531.744 -100.056,-496.009 -100.056,-451.866 L-100.056,-371.988 Z " fill="#e9dcb7" fill-opacity="1.00"/> <path d="M85.8464,-371.988 L165.724,-371.988 C209.867,-371.988 245.602,-407.723 245.602,-451.866 C245.602,-496.009 209.867,-531.744 165.724,-531.744 C121.581,-531.744 85.8464,-496.009 85.8464,-451.866 L85.8464,-371.988 Z " fill="#e9dcb7" fill-opacity="1.00"/> <path d="M-100.056,17.7735 L-179.933,17.7735 C-224.076,17.7735 -259.811,53.5083 -259.811,97.6512 C-259.811,141.794 -224.076,177.529 -179.933,177.529 C-135.79,177.529 -100.056,141.794 -100.056,97.6512 L-100.056,17.7735 Z " fill="#e9dcb7" fill-opacity="1.00"/> <path d="M85.8464,17.7735 L165.724,17.7735 C209.867,17.7735 245.602,53.5083 245.602,97.6512 C245.602,141.794 209.867,177.529 165.724,177.529 C121.581,177.529 85.8464,141.794 85.8464,97.6512 L85.8464,17.7735 Z " fill="#e9dcb7" fill-opacity="1.00"/> <path d="M-259.162,-456.644 L245.415,-456.644 L245.415,100.588 L-259.162,100.588 L-259.162,-456.644 Z " fill="#e9dcb7" fill-opacity="1.00"/> <path d="M-176.972,-531.744 L161.927,-531.744 L161.927,-192.844 L-176.972,-192.844 L-176.972,-531.744 Z " fill="#e9dcb7" fill-opacity="1.00"/> <path d="M-178.921,-161.371 L159.979,-161.371 L159.979,177.529 L-178.921,177.529 L-178.921,-161.371 Z " fill="#e9dcb7" fill-opacity="1.00"/> </g> <g> <path d="M-100.056,-65.1756 L-179.933,-65.1756 C-224.076,-65.1756 -259.811,-100.91 -259.811,-145.053 C-259.811,-189.196 -224.076,-224.931 -179.933,-224.931 C-135.79,-224.931 -100.056,-189.196 -100.056,-145.053 L-100.056,-65.1756 Z " fill="#e9dcb7" fill-opacity="1.00"/> <path d="M85.8464,-65.1756 L165.724,-65.1756 C209.867,-65.1756 245.602,-100.91 245.602,-145.053 C245.602,-189.196 209.867,-224.931 165.724,-224.931 C121.581,-224.931 85.8464,-189.196 85.8464,-145.053 L85.8464,-65.1756 Z " fill="#e9dcb7" fill-opacity="1.00"/> <path d="M-100.056,324.586 L-179.933,324.586 C-224.076,324.586 -259.811,360.321 -259.811,404.464 C-259.811,448.607 -224.076,484.342 -179.933,484.342 C-135.79,484.342 -100.056,448.607 -100.056,404.464 L-100.056,324.586 Z " fill="#e9dcb7" fill-opacity="1.00"/> <path d="M85.8464,324.586 L165.724,324.586 C209.867,324.586 245.602,360.321 245.602,404.464 C245.602,448.607 209.867,484.342 165.724,484.342 C121.581,484.342 85.8464,448.607 85.8464,404.464 L85.8464,324.586 Z " fill="#e9dcb7" fill-opacity="1.00"/> <path d="M-259.162,-149.831 L245.415,-149.831 L245.415,407.401 L-259.162,407.401 L-259.162,-149.831 Z " fill="#e9dcb7" fill-opacity="1.00"/> <path d="M-176.972,-224.931 L161.927,-224.931 L161.927,113.969 L-176.972,113.969 L-176.972,-224.931 Z " fill="#e9dcb7" fill-opacity="1.00"/> <path d="M-178.921,145.442 L159.979,145.442 L159.979,484.342 L-178.921,484.342 L-178.921,145.442 Z " fill="#e9dcb7" fill-opacity="1.00"/> </g> </g> </g> <g> <path d="M-148.341,-531.744 L-120.094,-531.744 C-104.483,-531.744 -91.8463,-519.107 -91.8463,-503.496 C-91.8463,-487.886 -104.483,-475.249 -120.094,-475.249 C-135.704,-475.249 -148.341,-487.886 -148.341,-503.496 L-148.341,-531.744 Z " fill="#000000" fill-opacity="1.00"/> <path d="M148.341,-531.744 L120.094,-531.744 C104.483,-531.744 91.8463,-519.107 91.8463,-503.496 C91.8463,-487.886 104.483,-475.249 120.094,-475.249 C135.704,-475.249 148.341,-487.886 148.341,-503.496 L148.341,-531.744 Z " fill="#000000" fill-opacity="1.00"/> <path d="M-119.856,-531.744 L119.234,-531.744 L119.234,-475.249 L-119.856,-475.249 L-119.856,-531.744 Z " fill="#000000" fill-opacity="1.00"/> </g> <g> <path d="M130.603,416.976 L231.786,416.976 C231.786,444.011 231.679,479.66 214.359,497.824 C195.922,517.161 159.382,518.159 130.603,518.159 L130.603,416.976 Z " fill="#cac2ac" fill-opacity="1.00"/> <path d="M-146.398,416.976 L-247.582,416.976 C-247.582,444.011 -247.474,479.66 -230.154,497.824 C-211.717,517.161 -175.178,518.159 -146.398,518.159 L-146.398,416.976 Z " fill="#cac2ac" fill-opacity="1.00"/> <path d="M-146.398,416.976 L-146.398,350.569 C-173.434,350.569 -209.082,350.639 -227.247,362.006 C-246.584,374.107 -247.582,398.088 -247.582,416.976 L-146.398,416.976 Z " fill="#cac2ac" fill-opacity="1.00"/> <path d="M130.683,416.818 L130.683,350.41 C157.718,350.41 193.367,350.481 211.532,361.848 C230.868,373.949 231.866,397.93 231.866,416.818 L130.683,416.818 Z " fill="#cac2ac" fill-opacity="1.00"/> <path d="M-146.398,382.787 L143.53,382.787 L143.53,518.159 L-146.398,518.159 L-146.398,382.787 Z " fill="#cac2ac" fill-opacity="1.00"/> <path d="M-146.635,350.553 L143.293,350.553 L143.293,485.926 L-146.635,485.926 L-146.635,350.553 Z " fill="#cac2ac" fill-opacity="1.00"/> </g> <path d="M-152.262,482.07 L-189.482,482.07 C-205.572,482.07 -218.657,468.985 -218.657,452.895 L-218.657,415.675 C-218.657,399.585 -205.572,386.5 -189.482,386.5 L-152.262,386.5 C-136.172,386.5 -123.087,399.585 -123.087,415.675 L-123.087,452.895 C-123.087,468.985 -136.172,482.07 -152.262,482.07 Z " fill="#a63171" fill-opacity="1.00"/> <path d="M-43.2391,483.773 L-80.4593,483.773 C-96.5492,483.773 -109.634,470.688 -109.634,454.598 L-109.634,417.378 C-109.634,401.288 -96.5492,388.202 -80.4593,388.202 L-43.2391,388.202 C-27.1491,388.202 -14.0639,401.288 -14.0639,417.378 L-14.0639,454.598 C-14.0639,470.688 -27.1491,483.773 -43.2391,483.773 Z " fill="#cff09e" fill-opacity="1.00"/> <path d="M66.3954,486.276 L29.1752,486.276 C13.0852,486.276 5.68434e-14,473.191 5.68434e-14,457.101 L5.68434e-14,419.881 C5.68434e-14,403.791 13.0852,390.706 29.1752,390.706 L66.3954,390.706 C82.4853,390.706 95.5706,403.791 95.5706,419.881 L95.5706,457.101 C95.5706,473.191 82.4853,486.276 66.3954,486.276 Z " fill="#87c424" fill-opacity="1.00"/> <path d="M175.418,486.276 L138.198,486.276 C122.108,486.276 109.023,473.191 109.023,457.101 L109.023,419.881 C109.023,403.791 122.108,390.706 138.198,390.706 L175.418,390.706 C191.508,390.706 204.594,403.791 204.594,419.881 L204.594,457.101 C204.594,473.191 191.508,486.276 175.418,486.276 Z " fill="#26bb91" fill-opacity="1.00"/> <path d="M-160.12,291.277 L-197.34,291.277 C-213.43,291.277 -226.515,278.192 -226.515,262.102 L-226.515,224.882 C-226.515,208.792 -213.43,195.707 -197.34,195.707 L-160.12,195.707 C-144.03,195.707 -130.945,208.792 -130.945,224.882 L-130.945,262.102 C-130.945,278.192 -144.03,291.277 -160.12,291.277 Z " fill="#26bb91" fill-opacity="1.00"/> <path d="M-51.0967,292.98 L-88.3169,292.98 C-104.407,292.98 -117.492,279.895 -117.492,263.805 L-117.492,226.585 C-117.492,210.495 -104.407,197.41 -88.3169,197.41 L-51.0967,197.41 C-35.0068,197.41 -21.9215,210.495 -21.9215,226.585 L-21.9215,263.805 C-21.9215,279.895 -35.0068,292.98 -51.0967,292.98 Z " fill="#13d6dd" fill-opacity="1.00"/> <path d="M58.5377,295.484 L21.3175,295.484 C5.22758,295.484 -7.85764,282.398 -7.85764,266.308 L-7.85764,229.088 C-7.85764,212.998 5.22758,199.913 21.3175,199.913 L58.5377,199.913 C74.6277,199.913 87.7129,212.998 87.7129,229.088 L87.7129,266.308 C87.7129,282.398 74.6277,295.484 58.5377,295.484 Z " fill="#26bb91" fill-opacity="1.00"/> <path d="M167.561,295.484 L130.341,295.484 C114.251,295.484 101.165,282.398 101.165,266.308 L101.165,229.088 C101.165,212.998 114.251,199.913 130.341,199.913 L167.561,199.913 C183.651,199.913 196.736,212.998 196.736,229.088 L196.736,266.308 C196.736,282.398 183.651,295.484 167.561,295.484 Z " fill="#f25e5b" fill-opacity="1.00"/> <path d="M-160.12,135.399 L-197.34,135.399 C-213.43,135.399 -226.515,122.314 -226.515,106.224 L-226.515,69.0034 C-226.515,52.9134 -213.43,39.8282 -197.34,39.8282 L-160.12,39.8282 C-144.03,39.8282 -130.945,52.9134 -130.945,69.0034 L-130.945,106.224 C-130.945,122.314 -144.03,135.399 -160.12,135.399 Z " fill="#98a093" fill-opacity="1.00"/> <path d="M-51.0967,137.102 L-88.3169,137.102 C-104.407,137.102 -117.492,124.016 -117.492,107.926 L-117.492,70.7061 C-117.492,54.6162 -104.407,41.5309 -88.3169,41.5309 L-51.0967,41.5309 C-35.0068,41.5309 -21.9215,54.6162 -21.9215,70.7061 L-21.9215,107.926 C-21.9215,124.016 -35.0068,137.102 -51.0967,137.102 Z " fill="#ffb30d" fill-opacity="1.00"/> <path d="M58.5377,139.605 L21.3175,139.605 C5.22758,139.605 -7.85764,126.52 -7.85764,110.43 L-7.85764,73.2095 C-7.85764,57.1196 5.22758,44.0344 21.3175,44.0344 L58.5377,44.0344 C74.6277,44.0344 87.7129,57.1196 87.7129,73.2095 L87.7129,110.43 C87.7129,126.52 74.6277,139.605 58.5377,139.605 Z " fill="#987f69" fill-opacity="1.00"/> <path d="M167.561,139.605 L130.341,139.605 C114.251,139.605 101.165,126.52 101.165,110.43 L101.165,73.2095 C101.165,57.1196 114.251,44.0344 130.341,44.0344 L167.561,44.0344 C183.651,44.0344 196.736,57.1196 196.736,73.2095 L196.736,110.43 C196.736,126.52 183.651,139.605 167.561,139.605 Z " fill="#9b133a" fill-opacity="1.00"/> <path d="M-160.12,-18.3147 L-197.34,-18.3147 C-213.43,-18.3147 -226.515,-31.3999 -226.515,-47.4899 L-226.515,-84.7101 C-226.515,-100.8 -213.43,-113.885 -197.34,-113.885 L-160.12,-113.885 C-144.03,-113.885 -130.945,-100.8 -130.945,-84.7101 L-130.945,-47.4899 C-130.945,-31.3999 -144.03,-18.3147 -160.12,-18.3147 Z " fill="#3162a6" fill-opacity="1.00"/> <path d="M-51.0967,-16.612 L-88.3169,-16.612 C-104.407,-16.612 -117.492,-29.6972 -117.492,-45.7872 L-117.492,-83.0074 C-117.492,-99.0974 -104.407,-112.183 -88.3169,-112.183 L-51.0967,-112.183 C-35.0068,-112.183 -21.9215,-99.0974 -21.9215,-83.0074 L-21.9215,-45.7872 C-21.9215,-29.6972 -35.0068,-16.612 -51.0967,-16.612 Z " fill="#343838" fill-opacity="1.00"/> <path d="M58.5377,-14.1086 L21.3175,-14.1086 C5.22758,-14.1086 -7.85764,-27.1938 -7.85764,-43.2838 L-7.85764,-80.504 C-7.85764,-96.5939 5.22758,-109.679 21.3175,-109.679 L58.5377,-109.679 C74.6277,-109.679 87.7129,-96.5939 87.7129,-80.504 L87.7129,-43.2838 C87.7129,-27.1938 74.6277,-14.1086 58.5377,-14.1086 Z " fill="#d95a43" fill-opacity="1.00"/> <path d="M167.561,-14.1086 L130.341,-14.1086 C114.251,-14.1086 101.165,-27.1938 101.165,-43.2838 L101.165,-80.504 C101.165,-96.5939 114.251,-109.679 130.341,-109.679 L167.561,-109.679 C183.651,-109.679 196.736,-96.5939 196.736,-80.504 L196.736,-43.2838 C196.736,-27.1938 183.651,-14.1086 167.561,-14.1086 Z " fill="#00dffe" fill-opacity="1.00"/> <path d="M-160.12,-172.028 L-197.34,-172.028 C-213.43,-172.028 -226.515,-185.113 -226.515,-201.203 L-226.515,-238.424 C-226.515,-254.514 -213.43,-267.599 -197.34,-267.599 L-160.12,-267.599 C-144.03,-267.599 -130.945,-254.514 -130.945,-238.424 L-130.945,-201.203 C-130.945,-185.113 -144.03,-172.028 -160.12,-172.028 Z " fill="#f25e5b" fill-opacity="1.00"/> <path d="M-51.0967,-170.326 L-88.3169,-170.326 C-104.407,-170.326 -117.492,-183.411 -117.492,-199.501 L-117.492,-236.721 C-117.492,-252.811 -104.407,-265.896 -88.3169,-265.896 L-51.0967,-265.896 C-35.0068,-265.896 -21.9215,-252.811 -21.9215,-236.721 L-21.9215,-199.501 C-21.9215,-183.411 -35.0068,-170.326 -51.0967,-170.326 Z " fill="#5bcfbf" fill-opacity="1.00"/> <path d="M58.5377,-167.822 L21.3175,-167.822 C5.22758,-167.822 -7.85764,-180.907 -7.85764,-196.997 L-7.85764,-234.217 C-7.85764,-250.307 5.22758,-263.393 21.3175,-263.393 L58.5377,-263.393 C74.6277,-263.393 87.7129,-250.307 87.7129,-234.217 L87.7129,-196.997 C87.7129,-180.907 74.6277,-167.822 58.5377,-167.822 Z " fill="#cdb380" fill-opacity="1.00"/> <path d="M167.561,-167.822 L130.341,-167.822 C114.251,-167.822 101.165,-180.907 101.165,-196.997 L101.165,-234.217 C101.165,-250.307 114.251,-263.393 130.341,-263.393 L167.561,-263.393 C183.651,-263.393 196.736,-250.307 196.736,-234.217 L196.736,-196.997 C196.736,-180.907 183.651,-167.822 167.561,-167.822 Z " fill="#a63171" fill-opacity="1.00"/> <path d="M-153.841,-325.742 L-191.061,-325.742 C-207.151,-325.742 -220.237,-338.827 -220.237,-354.917 L-220.237,-392.137 C-220.237,-408.227 -207.151,-421.312 -191.061,-421.312 L-153.841,-421.312 C-137.751,-421.312 -124.666,-408.227 -124.666,-392.137 L-124.666,-354.917 C-124.666,-338.827 -137.751,-325.742 -153.841,-325.742 Z " fill="#005f6c" fill-opacity="1.00"/> <path d="M-44.8183,-324.039 L-82.0385,-324.039 C-98.1285,-324.039 -111.214,-337.124 -111.214,-353.214 L-111.214,-390.434 C-111.214,-406.524 -98.1285,-419.61 -82.0385,-419.61 L-44.8183,-419.61 C-28.7283,-419.61 -15.6431,-406.524 -15.6431,-390.434 L-15.6431,-353.214 C-15.6431,-337.124 -28.7283,-324.039 -44.8183,-324.039 Z " fill="#9c9c9c" fill-opacity="1.00"/> <path d="M64.8162,-321.536 L27.596,-321.536 C11.506,-321.536 -1.57922,-334.621 -1.57922,-350.711 L-1.57922,-387.931 C-1.57922,-404.021 11.506,-417.106 27.596,-417.106 L64.8162,-417.106 C80.9061,-417.106 93.9913,-404.021 93.9913,-387.931 L93.9913,-350.711 C93.9913,-334.621 80.9061,-321.536 64.8162,-321.536 Z " fill="#005f6c" fill-opacity="1.00"/> <path d="M173.839,-321.536 L136.619,-321.536 C120.529,-321.536 107.444,-334.621 107.444,-350.711 L107.444,-387.931 C107.444,-404.021 120.529,-417.106 136.619,-417.106 L173.839,-417.106 C189.929,-417.106 203.014,-404.021 203.014,-387.931 L203.014,-350.711 C203.014,-334.621 189.929,-321.536 173.839,-321.536 Z " fill="#cdb380" fill-opacity="1.00"/> </g> </svg>