<svg xmlns="http://www.w3.org/2000/svg" viewBox="-350 195 1618 1000">
  <path d="M-356.104 179.045H1273.9v1025.39H-356.104V179.045" fill="#05b4cd"/>
  <path d="M975.485 1086.429l-4.441 2.671q-31.575 8.073-184.778 12.913-154.262 4.837-363.308 3.922-199.508-1.277-319.124-7.477-38.326-2.004-63.138-4.367l-20.854-2.429q-17.185-2.508-17.379-5.233 5.217-8.366 142.496-13.92 137.279-5.556 344.015-5.767 206.737.211 344.015 5.766 137.28 5.555 142.496 13.92" fill-opacity=".125"/>
  <path d="M94.313 869.517c-3.4 5.108-5.196 7.864-5.162 7.954.38.57 59.445 41.064 131.416 90.049l130.781 89.145 180.056-263.012 179.94-263.08-131.765-89.972-131.773-89.974L268.29 613.534C184.366 736.438 113.56 840.624 94.313 869.517zm109.644-48.585L320.776 649.84 437.602 478.75 203.957 820.933zm262.177-73.552c-.058.086-.114.172-.177.26-.057.084-.11.172-.169.26zM362.44 928.375l233.427-341.867L479.12 757.49 362.439 928.375z" fill="#26785f"/>
  <path d="M79.198 875.878c.384.569 59.448 41.057 131.422 90.045l130.783 89.144 180.054-263.009 179.942-263.081-131.766-89.97-131.767-89.974-179.52 262.902C159.591 756.563 78.996 875.271 79.198 875.878zm355.363-395.71c14.13 6.249 27.515 6.11 41.432-.46 5.056-2.422 9.512-5.56 12.565-8.884 2.476-2.954 5.262-5.218 6.001-5.176 2.872.1 77.504 51.065 77.699 53.047-.016.92-1.22 4.267-2.741 7.402-3.77 7.323-5.031 22.075-2.764 30.737 2.491 8.81 7.88 17.9 14.086 23.526l5.08 4.551L469.18 755.9l-116.68 170.877-7.892-3.382c-4.3-1.858-10.153-3.69-12.983-4.07-13.263-1.64-30.92 4.083-39.2 12.804-1.895 2.1-4.436 4.69-5.62 5.742l-2.075 2.136-39.002-26.634c-43.642-29.799-39.861-25.825-34.824-36.147 3.55-7.46 4.543-17.752 2.675-27.686-2.009-10.646-9.445-23.296-16.505-28.122l-3.056-2.086 116.82-171.091L427.66 477.156l6.9 3.011z" fill="#26785f"/>
  <path d="M317.397 669.416c-5.849 13.311-8.085 29.724-5.942 44.013 2.148 13.836 6.354 23.968 14.651 35.813 5.683 8.21 7.331 9.646 19.454 17.925 11.806 8.062 14.238 9.252 23.1 11.443 19.202 4.921 37.916 3.322 54.569-4.316 31.527-14.49 50.643-49.504 45.568-83.26-5.97-39.475-38.184-68.125-77.408-68.629-31.41-.422-61.5 18.751-73.992 47.011z" fill="#26785f"/>
  <path d="M323.997 657.576c14.768-21.636 40.602-35.528 67.392-35.17 39.224.503 71.438 29.153 77.408 68.628 2.944 19.59-2.251 39.606-13.302 55.782-7.988 11.7-19.037 21.396-32.266 27.478-16.653 7.638-35.367 9.237-54.57 4.316-8.86-2.191-11.293-3.381-23.099-11.443-12.123-8.28-13.771-9.714-19.454-17.925-8.297-11.845-12.503-21.977-14.65-35.813-2.144-14.29.092-30.702 5.94-44.013a74.72 74.72 0 016.6-11.84zm-129.98 161.756l3.056 2.086c7.06 4.826 14.496 17.476 16.505 28.122 1.868 9.934.874 20.225-2.675 27.686-5.037 10.322-8.818 6.348 34.824 36.147l39.002 26.634 2.076-2.136c1.183-1.051 3.724-3.641 5.619-5.742 8.28-8.72 25.937-14.444 39.2-12.805 2.83.38 8.683 2.213 12.983 4.071l7.891 3.382L585.92 584.91l-5.08-4.55c-6.206-5.627-11.595-14.718-14.086-23.527-2.267-8.662-1.005-23.414 2.764-30.737 1.52-3.135 2.725-6.483 2.74-7.402-.194-1.982-74.826-52.947-77.698-53.047-.739-.042-3.525 2.222-6 5.176-3.054 3.325-7.51 6.462-12.566 8.885-13.917 6.57-27.302 6.708-41.432.458l-6.9-3.011z" fill="#2aaf86"/>
  <path d="M345.565 670.416l10.08 5.82q-1.403 10.424 3.079 20.033 4.482 9.609 14.112 15.168 6.168 3.561 13.125 4.368 6.806.72 13.213-.997 6.408-1.717 12.029-5.894 5.534-4.026 9.096-10.195l.521-.903q1.343-1.631 3.392-2.053 2.05-.422 4.005.707 2.107 1.216 2.742 3.59.636 2.373-.58 4.48-1.216 2.105-3.59 2.741-2.372.636-4.479-.58l-14.42 24.975q4.815 2.78 10.047 3.794 4.995 1.079 10.233.692 5-.322 9.857-2.132 4.706-1.897 8.793-5.154l11.435 6.602 14.593-25.276-12.789-7.384q.258-9.48-4.294-17.926-4.402-8.359-13.129-13.397-6.168-3.561-13.125-4.368-6.806-.72-13.213.997-6.408 1.717-12.03 5.894-5.533 4.026-9.095 10.195l-.521.903q-1.343 1.631-3.543 1.966-2.049.422-3.854-.62-2.106-1.216-2.893-3.677-.636-2.373.58-4.479t3.74-2.655q2.373-.636 4.48.58l14.42-24.975q-8.727-5.038-18.318-4.758-9.59.28-17.671 5.244l-11.435-6.602z" fill="#125b45"/>
  <path d="M345.606 673.263l10.08 5.82q-1.403 10.423 3.08 20.032 4.482 9.609 14.11 15.168 6.17 3.562 13.126 4.369 6.806.72 13.213-.997 6.408-1.717 12.03-5.894 5.534-4.027 9.095-10.195l.521-.903q1.343-1.632 3.393-2.054 2.048-.422 4.004.708 2.107 1.216 2.743 3.59.636 2.372-.58 4.479-1.217 2.106-3.59 2.742-2.373.636-4.48-.58l-14.419 24.975q4.815 2.78 10.047 3.794 4.994 1.078 10.232.692 5-.322 9.857-2.133 4.706-1.896 8.793-5.154l11.435 6.602 14.593-25.276-12.788-7.384q.257-9.48-4.295-17.925-4.402-8.36-13.128-13.398-6.169-3.56-13.125-4.368-6.806-.72-13.214.997t-12.029 5.894q-5.534 4.027-9.095 10.195l-.522.903q-1.343 1.632-3.542 1.967-2.05.422-3.855-.62-2.106-1.217-2.893-3.677-.635-2.373.58-4.48 1.217-2.106 3.74-2.655 2.374-.636 4.48.58l14.42-24.975q-8.727-5.038-18.317-4.758-9.59.28-17.672 5.244l-11.434-6.601z" fill="#2aaf86"/>
  <path d="M211.015 782.828c-5.5 2.724-8.432 4.213-8.448 4.307.044.685 30.95 65.286 68.786 143.694l68.687 142.592 287.439-137.747L914.85 797.81 845.725 654.01l-69.132-143.806L489.674 648.13c-134.132 64.476-247.543 119.3-278.659 134.7zm119.246 12.747l186.715-89.762 186.719-89.754L330.26 795.575zm263.829 67.39c-.094.046-.185.091-.283.137-.092.044-.183.093-.277.14zm-180.3 104.9l373.086-179.353-186.596 89.703-186.49 89.65z" fill="#26785f"/>
  <path d="M194.744 780.78c.048.684 30.955 65.28 68.793 143.692l68.689 142.593L619.66 929.319l287.375-137.864-69.128-143.8-69.127-143.802-286.918 137.92c-157.84 75.873-286.99 138.38-287.119 139.007zm505.608-165.014c9.113 12.477 20.774 19.05 36.11 20.318 5.591.43 11.019-.058 15.325-1.411 3.622-1.32 7.166-1.888 7.785-1.482 2.437 1.522 41.588 82.975 40.766 84.789-.474.788-3.19 3.086-6.075 5.04-6.926 4.457-15.395 16.602-17.762 25.237-2.248 8.875-2.126 19.442.436 27.417l2.124 6.482-186.595 89.71L405.98 961.51l-5.143-6.875c-2.794-3.759-6.947-8.272-9.207-10.016-10.667-8.052-28.82-11.924-40.351-8.512-2.692.872-6.187 1.845-7.738 2.164l-2.866.812-20.459-42.567c-22.896-47.628-21.608-42.296-12.085-48.716 6.804-4.687 12.81-13.103 16.16-22.64 3.583-10.224 3.468-24.897-.234-32.607l-1.602-3.334 186.713-89.76 186.716-89.751 4.47 6.058z" fill="#26785f"/>
  <path d="M504.261 721.078c-11.72 8.604-21.863 21.699-27.152 35.146-5.057 13.056-6.481 23.933-5.218 38.34.816 9.952 1.526 12.018 7.885 25.25 6.194 12.885 7.705 15.132 14.283 21.46 14.17 13.863 31.176 21.836 49.417 23.547 34.548 3.216 68.61-17.55 81.093-49.322 14.567-37.171.994-78.09-32.724-98.138-26.99-16.071-62.635-14.51-87.584 3.717z" fill="#26785f"/>
  <path d="M515.897 714.124c23.608-11.353 52.926-10.466 75.948 3.237 33.717 20.049 47.291 60.967 32.724 98.138-7.246 18.438-21.753 33.175-39.411 41.659-12.768 6.137-27.185 9.01-41.682 7.663-18.241-1.711-35.248-9.684-49.417-23.547-6.578-6.328-8.09-8.575-14.283-21.46-6.36-13.232-7.07-15.298-7.885-25.25-1.263-14.407.16-25.284 5.218-38.34 5.289-13.447 15.431-26.542 27.152-35.146a74.71 74.71 0 0111.636-6.954zm-193.444 75.095l1.603 3.334c3.702 7.71 3.817 22.383.233 32.607-3.349 9.537-9.355 17.953-16.159 22.64-9.523 6.42-10.811 1.088 12.085 48.716l20.46 42.567 2.865-.812c1.551-.32 5.046-1.292 7.738-2.164 11.532-3.412 29.684.46 40.35 8.512 2.261 1.744 6.414 6.257 9.208 10.016l5.143 6.875 373.082-179.354-2.124-6.482c-2.562-7.975-2.684-18.542-.436-27.417 2.367-8.635 10.837-20.78 17.762-25.237 2.885-1.954 5.601-4.252 6.075-5.04.822-1.814-38.329-83.267-40.766-84.789-.62-.406-4.163.161-7.785 1.482-4.306 1.352-9.734 1.841-15.325 1.411-15.336-1.268-26.997-7.841-36.11-20.318l-4.47-6.058z" fill="#2aaf86"/>
  <path d="M539.263 717.903v11.64q-9.729 3.995-15.81 12.682-6.08 8.686-6.08 19.805 0 7.122 2.78 13.55 2.78 6.255 7.47 10.945 4.69 4.691 11.119 7.47 6.254 2.78 13.377 2.78h1.042q2.085.348 3.475 1.911 1.39 1.564 1.39 3.822 0 2.433-1.738 4.17-1.737 1.737-4.17 1.737-2.431 0-4.169-1.737-1.737-1.737-1.737-4.17h-28.839q0 5.56 1.737 10.598 1.564 4.864 4.518 9.207 2.78 4.17 6.775 7.47 3.996 3.128 8.86 5.039v13.203h29.186v-14.767q8.34-4.517 13.378-12.682 5.037-7.991 5.037-18.068 0-7.123-2.78-13.55-2.779-6.255-7.47-10.945-4.69-4.691-11.118-7.47-6.254-2.78-13.377-2.78h-1.042q-2.085-.348-3.475-2.085-1.39-1.564-1.39-3.648 0-2.433 1.737-4.344 1.738-1.737 4.17-1.737t4.17 1.911q1.737 1.737 1.737 4.17h28.838q0-10.077-5.037-18.242-5.039-8.165-13.378-12.682v-13.203z" fill="#125b45"/>
  <path d="M536.819 719.362v11.64q-9.73 3.995-15.81 12.682-6.08 8.686-6.08 19.805 0 7.122 2.78 13.55 2.78 6.255 7.47 10.945 4.69 4.691 11.119 7.47 6.254 2.78 13.377 2.78h1.042q2.085.348 3.475 1.911 1.39 1.564 1.39 3.822 0 2.432-1.738 4.17-1.737 1.737-4.17 1.737-2.432 0-4.17-1.737-1.736-1.738-1.736-4.17h-28.84q0 5.56 1.738 10.597 1.564 4.865 4.517 9.208 2.78 4.17 6.775 7.47 3.996 3.128 8.86 5.039v13.203h29.187v-14.767q8.339-4.517 13.377-12.682 5.038-7.991 5.038-18.068 0-7.122-2.78-13.55-2.779-6.255-7.47-10.946-4.69-4.69-11.118-7.47-6.255-2.78-13.377-2.78h-1.043q-2.085-.347-3.474-2.084-1.39-1.564-1.39-3.648 0-2.433 1.737-4.344 1.737-1.737 4.17-1.737 2.432 0 4.169 1.911 1.737 1.737 1.737 4.17h28.839q0-10.077-5.038-18.242-5.038-8.165-13.377-12.682v-13.203z" fill="#2aaf86"/>
  <g>
    <path d="M259.306 761.323c-6.137.082-9.425.158-9.48.236-.256.637-.277 72.25-.01 159.31l.378 158.273 318.74-.118 318.73-.25-.251-159.554-.255-159.559-318.347.502c-148.824.233-274.79.708-309.505 1.16zm102.05 62.99l207.17-.331 207.17-.324-414.34.656zm208.86 174.713c-.104 0-.206.002-.313 0-.102.002-.205.007-.31.008zm-207.92 16.755l413.956-.658-207.037.331-206.92.327z" fill="#26785f"/>
    <path d="M245.514 752.45c-.252.637-.269 72.246-.002 159.31l.378 158.274 318.737-.117 318.732-.251-.253-159.552-.251-159.554-318.345.497c-175.127.275-318.608.883-318.996 1.392zm527.294 69.5c2.832 15.19 10.511 26.153 23.796 33.92 4.857 2.802 9.963 4.705 14.431 5.345 3.837.372 7.279 1.391 7.662 2.025 1.541 2.425 1.68 92.799.155 94.08-.768.506-4.21 1.405-7.657 1.922-8.17 1.03-21.054 8.326-26.918 15.093-5.86 7.034-10.313 16.617-11.447 24.917l-.882 6.763-207.039.338-206.914.324-1.67-8.421c-.897-4.598-2.694-10.462-3.98-13.011-6.144-11.869-20.844-23.2-32.72-25.102-2.803-.376-6.376-1.008-7.912-1.39l-2.936-.505-.071-47.228c-.085-52.845-1.226-47.48 10.137-49.159 8.16-1.289 17.212-6.285 24.35-13.441 7.649-7.675 13.88-20.959 13.871-29.511l-.005-3.7 207.168-.33 207.166-.323 1.415 7.394z" fill="#26785f"/>
    <path d="M550.466 832.26c-14.287 2.698-29.09 10.13-39.667 19.974-10.199 9.592-16.18 18.788-21.262 32.327-3.562 9.33-3.814 11.5-3.792 26.18.022 14.297.415 16.976 3.616 25.524 6.793 18.623 18.69 33.157 34.403 42.578 29.772 17.82 69.461 13.798 94.44-9.468 29.191-27.236 34.618-70.004 12.864-102.647-17.405-26.15-50.228-40.136-80.602-34.469z" fill="#26785f"/>
    <path d="M563.964 831.012c26.196-.045 52.257 13.415 67.104 35.716 21.754 32.643 16.327 75.411-12.864 102.647-14.497 13.501-33.945 20.53-53.536 20.556-14.166.022-28.41-3.613-40.904-11.088-15.714-9.42-27.61-23.955-34.403-42.578-3.201-8.548-3.594-11.227-3.616-25.523-.022-14.68.23-16.851 3.792-26.18 5.081-13.54 11.063-22.736 21.262-32.328 10.578-9.844 25.38-17.276 39.667-19.975a74.702 74.702 0 0113.498-1.247zM357.06 815.21l.005 3.699c.01 8.552-6.222 21.836-13.87 29.51-7.139 7.157-16.19 12.153-24.351 13.442-11.363 1.679-10.222-3.686-10.137 49.16l.071 47.227 2.936.505c1.536.382 5.109 1.014 7.913 1.39 11.875 1.903 26.575 13.233 32.72 25.102 1.285 2.549 3.082 8.413 3.979 13.01l1.67 8.422 413.953-.662.883-6.763c1.133-8.3 5.587-17.883 11.446-24.917 5.864-6.767 18.748-14.064 26.918-15.093 3.446-.517 6.89-1.416 7.657-1.922 1.524-1.281 1.386-91.655-.155-94.08-.383-.634-3.825-1.653-7.662-2.025-4.468-.64-9.574-2.543-14.431-5.345-13.285-7.767-20.965-18.73-23.796-33.92l-1.415-7.394z" fill="#2aaf86"/>
  </g>
  <g>
    <path d="M554.834 846.165v11.64q-9.728 3.995-15.809 12.682-6.08 8.686-6.08 19.805 0 7.123 2.78 13.551 2.779 6.254 7.47 10.945 4.69 4.69 11.118 7.47 6.254 2.78 13.377 2.78h1.043q2.084.347 3.474 1.91 1.39 1.564 1.39 3.823 0 2.432-1.737 4.17-1.738 1.736-4.17 1.736t-4.17-1.737q-1.737-1.737-1.737-4.17h-28.838q0 5.56 1.737 10.598 1.563 4.864 4.517 9.208 2.78 4.17 6.775 7.47 3.996 3.127 8.86 5.038v13.204h29.187V961.52q8.339-4.516 13.377-12.682 5.038-7.99 5.038-18.067 0-7.123-2.78-13.551-2.78-6.254-7.47-10.945-4.69-4.69-11.119-7.47-6.254-2.78-13.377-2.78h-1.042q-2.085-.347-3.475-2.084-1.39-1.564-1.39-3.649 0-2.432 1.738-4.343 1.737-1.738 4.17-1.738 2.431 0 4.168 1.911 1.738 1.738 1.738 4.17h28.839q0-10.076-5.038-18.242-5.038-8.165-13.377-12.682v-13.203z" fill="#125b45"/>
    <path d="M552.39 847.624v11.64q-9.729 3.995-15.81 12.682-6.08 8.686-6.08 19.805 0 7.123 2.78 13.551 2.78 6.254 7.47 10.945 4.69 4.69 11.119 7.47 6.254 2.78 13.377 2.78h1.042q2.085.347 3.475 1.91 1.39 1.564 1.39 3.823 0 2.432-1.738 4.17-1.737 1.737-4.17 1.737-2.431 0-4.169-1.738-1.737-1.737-1.737-4.17H530.5q0 5.56 1.737 10.598 1.564 4.865 4.517 9.208 2.78 4.17 6.776 7.47 3.995 3.127 8.86 5.038v13.204h29.186V962.98q8.34-4.517 13.377-12.683 5.038-7.99 5.038-18.067 0-7.123-2.78-13.551-2.779-6.254-7.47-10.945-4.69-4.69-11.118-7.47-6.254-2.78-13.377-2.78h-1.043q-2.084-.347-3.474-2.085-1.39-1.563-1.39-3.648 0-2.432 1.737-4.343 1.738-1.738 4.17-1.738t4.17 1.912q1.737 1.737 1.737 4.17h28.838q0-10.077-5.038-18.243-5.038-8.165-13.377-12.682v-13.203z" fill="#2aaf86"/>
  </g>
  <g fill="#fdd908">
    <path d="M27.684 946.14l1.114-20.733q9.066-62.737 56.635-100.916 47.902-38.159 113.592-31.952 62.738 9.065 100.918 56.633 12.236 15.378 20.269 33.6l6.796 18.751q5.653 19.373 5.997 40.51-.766 64.896-43.265 108.553-42.498 43.654-107.347 46.163-64.894-.766-108.548-43.263-43.654-42.497-46.16-107.346z"/>
  </g>
  <g fill="#eeaa01">
    <path d="M51.575 945.434l.943-17.488q7.648-52.918 47.77-85.124 40.405-32.184 95.816-26.95 52.917 7.648 85.123 47.772 10.318 12.972 17.093 28.34l5.735 15.817q4.768 16.339 5.058 34.17-.646 54.739-36.494 91.561-35.846 36.825-90.548 38.941-54.736-.647-91.558-36.492-36.82-35.848-38.938-90.547z"/>
  </g>
  <g fill="#ffb70d">
    <path d="M54.722 945.343l.92-17.061q7.461-51.625 46.603-83.044 39.418-31.397 93.474-26.29 51.624 7.46 83.042 46.603 10.067 12.655 16.676 27.647l5.595 15.432q4.651 15.939 4.934 33.334-.63 53.401-35.602 89.324-34.97 35.925-88.335 37.99-53.398-.632-89.32-35.602-35.921-34.971-37.987-88.333z"/>
  </g>
  <g>
    <path d="M168.757 874.426v12.948q-10.823 4.445-17.587 14.108-6.764 9.663-6.764 22.032 0 7.923 3.092 15.074 3.093 6.957 8.31 12.175 5.219 5.218 12.37 8.31 6.956 3.092 14.88 3.092h1.16q2.318.387 3.865 2.126 1.546 1.74 1.546 4.252 0 2.705-1.933 4.638-1.933 1.932-4.638 1.932-2.706 0-4.638-1.932-1.933-1.933-1.933-4.638h-32.08q0 6.184 1.932 11.788 1.74 5.412 5.025 10.243 3.092 4.638 7.537 8.31 4.444 3.479 9.856 5.605v14.687h32.467v-16.427q9.276-5.025 14.881-14.108 5.604-8.89 5.604-20.098 0-7.924-3.092-15.075-3.092-6.957-8.31-12.175-5.218-5.218-12.368-8.31-6.957-3.092-14.881-3.092h-1.16q-2.319-.386-3.865-2.319-1.546-1.74-1.546-4.058 0-2.706 1.933-4.832 1.932-1.932 4.638-1.932 2.705 0 4.638 2.125 1.933 1.933 1.933 4.639h32.08q0-11.21-5.604-20.292-5.605-9.083-14.881-14.108v-14.688z" fill="#eeaa01"/>
  </g>
  <g>
    <path d="M166.038 876.049v12.948q-10.823 4.446-17.587 14.108-6.764 9.663-6.764 22.032 0 7.923 3.092 15.074 3.092 6.957 8.31 12.175 5.218 5.218 12.369 8.31 6.957 3.092 14.88 3.092h1.16q2.32.386 3.865 2.126 1.546 1.74 1.546 4.252 0 2.705-1.932 4.638-1.933 1.932-4.638 1.932-2.706 0-4.639-1.932-1.932-1.933-1.932-4.638h-32.08q0 6.184 1.932 11.788 1.739 5.412 5.024 10.243 3.093 4.638 7.538 8.31 4.444 3.479 9.856 5.604v14.688h32.467v-16.427q9.276-5.024 14.88-14.108 5.605-8.89 5.605-20.098 0-7.924-3.092-15.075-3.092-6.957-8.31-12.175-5.218-5.218-12.368-8.31-6.958-3.092-14.881-3.092h-1.16q-2.32-.386-3.865-2.319-1.546-1.74-1.546-4.058 0-2.706 1.933-4.832 1.932-1.932 4.638-1.932 2.705 0 4.638 2.126 1.932 1.932 1.932 4.638h32.081q0-11.21-5.604-20.292-5.605-9.084-14.881-14.108v-14.688z" fill="#fdd908"/>
  </g>
</svg>